<svg width="16" height="16" fill="none" xmlns="http://www.w3.org/2000/svg"><path d="M3.96 13.048A5.8 5.8 0 008 14.666a5.8 5.8 0 004.04-1.618 5.393 5.393 0 000-7.81L8 1.333 3.96 5.238a5.393 5.393 0 000 7.81z" fill="url(#paint0_linear)"/><path d="M5.67 12.363c.644.648 1.487.971 2.33.971s1.686-.323 2.33-.97a3.328 3.328 0 000-4.687L8 5.334 5.67 7.677a3.328 3.328 0 000 4.686z" fill="#76808F"/><path d="M2 2.333L3.667 4l1.666-1.667L3.667.667 2 2.333z" fill="url(#paint1_linear)"/><path d="M13.333 5l1 1 1-1-1-1-1 1z" fill="#76808F"/><path d="M.667 13.334l1 1 1-1-1-1-1 1z" fill="url(#paint2_linear)"/><defs><linearGradient id="paint0_linear" x1="8" y1="14.666" x2="8" y2="1.333" gradientUnits="userSpaceOnUse"><stop stop-color="#F0B90B"/><stop offset="1" stop-color="#F8D33A"/></linearGradient><linearGradient id="paint1_linear" x1="3.667" y1="4" x2="3.667" y2=".667" gradientUnits="userSpaceOnUse"><stop stop-color="#F0B90B"/><stop offset="1" stop-color="#F8D33A"/></linearGradient><linearGradient id="paint2_linear" x1="1.667" y1="14.334" x2="1.667" y2="12.334" gradientUnits="userSpaceOnUse"><stop stop-color="#F0B90B"/><stop offset="1" stop-color="#F8D33A"/></linearGradient></defs></svg>